<svg xmlns="http://www.w3.org/2000/svg" viewBox="0 0 318 92"><defs><style>.cls-1{fill:#f05a22;}.cls-2{fill:#127c00;}</style></defs><g id="Layer_2" data-name="Layer 2"><g id="design"><g id="datajoy_logo_POS"><circle class="cls-1" cx="240.87" cy="49.1" r="24.55"/><path class="cls-2" d="M231.67,10.74H220.92A9.21,9.21,0,0,0,230.13,20h10.74A9.2,9.2,0,0,0,231.67,10.74Z"/><path class="cls-2" d="M240.87,9.21V20a9.21,9.21,0,0,0,9.21-9.21V0A9.21,9.21,0,0,0,240.87,9.21Z"/><path d="M105.25,25.87V72.34H96.4V68.13h-.18c-3.24,3.42-8.68,5.52-15.34,5.52-13.86,0-23.59-10-23.59-24.55S67,24.55,80.88,24.55c6.66,0,12.1,2.1,15.34,5.52h.18v-4.2Zm-9,28V44.37c0-6.58-6.14-11.84-14.2-11.84-9.82,0-15.7,6.22-15.7,16.57S72.2,65.67,82,65.67C90.08,65.67,96.22,60.41,96.22,53.84Z"/><path d="M123.44,33.58V60.06c0,3.07,1.14,4.12,5,4.12h7.72v8.16H128c-9.73,0-13.59-3.6-13.59-12.1V15h9V25.87h14.9v7.71Z"/><path d="M189.12,25.87V72.34h-8.86V68.13h-.17c-3.25,3.42-8.68,5.52-15.35,5.52-13.85,0-23.58-10-23.58-24.55s9.73-24.55,23.58-24.55c6.67,0,12.1,2.1,15.35,5.52h.17v-4.2Zm-9,28V44.37c0-6.58-6.14-11.84-14.21-11.84-9.82,0-15.69,6.22-15.69,16.57s5.87,16.57,15.69,16.57C174,65.67,180.09,60.41,180.09,53.84Z"/><path d="M188.17,83h6.58c3.59,0,5-1.4,5-4.73V25.87h9V78.58C208.77,87,204.13,91,195.36,91h-7.19Z"/><path d="M0,49.1c0-14,10.52-24.55,24.55-24.55,6.93,0,13.07,2.28,16.84,6.4h.17V8.33h9v64h-8.5V67.08h-.18c-3.68,4.2-9.82,6.57-16.92,6.57C10.43,73.65,0,63.48,0,49.1Zm41.56,3.16V45.94c0-7.54-7-13.41-16.13-13.41C15.61,32.53,9,39.1,9,49.1s6.49,16.57,16.75,16.57C34.63,65.67,41.56,59.71,41.56,52.26Z"/><polygon points="275.07 92 285.24 92 318 25.86 307.74 25.86 291.87 59.27 291.69 59.27 275.65 25.86 265.39 25.86 286.79 68.74 275.07 92"/></g></g></g></svg>